<svg fill="none" height="35" viewBox="0 0 170 35" width="170" xmlns="http://www.w3.org/2000/svg"><path d="m.556 27v-24.768h16.632v4.824h-10.368v5.868h9.036v4.824h-9.036v9.252zm25.7521.288c-1.224 0-2.208-.156-2.952-.468s-1.308-.768-1.692-1.368-.636-1.344-.756-2.232-.18-1.92-.18-3.096v-11.484h5.76v9.72c0 .984.024 1.764.072 2.34.072.552.192.96.36 1.224s.42.432.756.504c.336.048.792.072 1.368.072.624 0 1.116-.06 1.476-.18.384-.144.66-.372.828-.684s.276-.744.324-1.296c.072-.576.108-1.284.108-2.124v-9.576h5.796v18.36h-5.508l-.144-2.232h-.324c-.336.624-.768 1.128-1.296 1.512-.528.36-1.128.612-1.8.756-.672.168-1.404.252-2.196.252zm15.6895-.288v-18.36h5.472l.144 3.132h.324c.336-.888.756-1.584 1.26-2.088.528-.504 1.164-.852 1.908-1.044s1.608-.288 2.592-.288v5.292c-1.512 0-2.7.192-3.564.576s-1.476 1.044-1.836 1.98c-.36.912-.54 2.196-.54 3.852v6.948zm14.7657 0v-18.36h5.472l.144 2.232h.324c.36-.624.804-1.116 1.3319-1.476.5281-.384 1.1281-.648 1.8001-.792.672-.168 1.404-.252 2.196-.252 1.224 0 2.196.156 2.916.468.744.312 1.308.768 1.692 1.368s.636 1.344.756 2.232c.144.888.216 1.92.216 3.096v11.484h-5.796v-9.72c0-.984-.024-1.752-.072-2.304-.048-.576-.156-.996-.324-1.26s-.432-.42-.792-.468c-.336-.072-.792-.108-1.368-.108-.6 0-1.092.072-1.4761.216-.3599.12-.6359.336-.8279.648-.168.312-.288.756-.36 1.332-.048.552-.072 1.248-.072 2.088v9.576zm21.1975-22.104v-4.644001h5.94v4.644001zm.072 22.104v-18.36h5.832v18.36zm19.6968.288c-.96 0-2.004-.024-3.132-.072-1.104-.048-2.196-.12-3.276-.216-1.056-.096-2.004-.192-2.844-.288v-4.644l2.664.216c.912.072 1.776.12 2.592.144s1.5.036 2.052.036c1.152 0 2.028-.036 2.628-.108.6-.096 1.044-.228 1.332-.396.192-.168.3244-.348.3964-.54.096-.192.156-.42.18-.684s.036-.564.036-.9c0-.504-.036-.9-.108-1.188-.048-.312-.168-.552-.3604-.72-.168-.168-.432-.288-.792-.36-.36-.096-.828-.18-1.404-.252l-5.076-.648c-.984-.12-1.788-.36-2.412-.72-.624-.384-1.116-.888-1.476-1.512s-.612-1.356-.756-2.196c-.144-.864-.216-1.824-.216-2.88 0-1.632.24-2.928.72-3.888.48-.984 1.14-1.728 1.98-2.232.864-.528 1.86-.876 2.988-1.044 1.152-.168 2.4-.252 3.744-.252.96 0 1.956.036 2.9884.108 1.032.048 2.004.132 2.916.252.912.096 1.668.216 2.268.36v4.536c-.6-.096-1.308-.168-2.124-.216-.792-.072-1.62-.12-2.484-.144-.8644-.048-1.6804-.072-2.4484-.072-.936 0-1.68.036-2.232.108-.552.048-.984.156-1.296.324-.336.192-.552.444-.648.756-.072.312-.108.708-.108 1.188 0 .6.048 1.068.144 1.404.096.312.312.528.648.648s.852.228 1.548.324l4.9324.576c.672.072 1.284.192 1.836.36.576.168 1.092.432 1.548.792.48.36.876.876 1.188 1.548.168.312.3.696.396 1.152.096.432.18.936.252 1.512s.108 1.224.108 1.944c0 1.416-.144 2.616-.432 3.6-.288.96-.696 1.728-1.224 2.304-.528.552-1.164.984-1.908 1.296-.744.288-1.572.468-2.484.54-.8884.096-1.8364.144-2.8444.144zm12.7874-.288v-26.748001h5.76v10.512001h.324c.36-.6.792-1.068 1.296-1.404.528-.36 1.116-.612 1.764-.756s1.356-.216 2.124-.216c1.224 0 2.196.156 2.916.468.744.288 1.308.732 1.692 1.332s.636 1.344.756 2.232c.144.888.216 1.92.216 3.096v11.484h-5.796v-9.72c0-.984-.024-1.752-.072-2.304-.048-.576-.156-.996-.324-1.26s-.432-.42-.792-.468c-.336-.072-.792-.108-1.368-.108-.6 0-1.092.072-1.476.216-.36.12-.636.336-.828.648-.168.312-.288.756-.36 1.332-.048.552-.072 1.248-.072 2.088v9.576zm29.334.288c-1.632 0-2.988-.096-4.068-.288s-1.932-.504-2.556-.936-1.08-1.008-1.368-1.728-.48-1.62-.576-2.7c-.072-1.08-.108-2.364-.108-3.852s.036-2.76.108-3.816c.096-1.08.288-1.98.576-2.7s.744-1.296 1.368-1.728 1.476-.732 2.556-.9c1.08-.192 2.436-.288 4.068-.288 1.656 0 3.024.096 4.104.288 1.08.168 1.932.468 2.556.9s1.08 1.008 1.368 1.728.468 1.62.54 2.7c.096 1.056.144 2.328.144 3.816s-.048 2.772-.144 3.852c-.072 1.08-.252 1.98-.54 2.7s-.744 1.296-1.368 1.728-1.476.744-2.556.936-2.448.288-4.104.288zm0-4.392c.72 0 1.284-.048 1.692-.144s.696-.312.864-.648.264-.852.288-1.548c.048-.696.072-1.62.072-2.772s-.024-2.064-.072-2.736c-.024-.672-.12-1.176-.288-1.512s-.456-.552-.864-.648-.972-.144-1.692-.144-1.284.048-1.692.144c-.384.096-.66.312-.828.648s-.276.84-.324 1.512c-.024.672-.036 1.584-.036 2.736s.012 2.076.036 2.772c.048.696.156 1.212.324 1.548s.444.552.828.648c.408.096.972.144 1.692.144zm12.572 11.268v-25.524h5.472l.144 2.232h.324c.384-.696.84-1.224 1.368-1.584.552-.36 1.164-.6 1.836-.72.672-.144 1.344-.216 2.016-.216 1.08 0 1.992.144 2.736.432.768.288 1.392.792 1.872 1.512.504.696.864 1.656 1.08 2.88.24 1.224.36 2.76.36 4.608 0 1.824-.12 3.348-.36 4.572-.216 1.224-.564 2.196-1.044 2.916s-1.104 1.236-1.872 1.548c-.744.312-1.656.468-2.736.468-.696 0-1.368-.06-2.016-.18s-1.236-.336-1.764-.648c-.504-.336-.948-.804-1.332-1.404h-.324v9.108zm8.568-11.628c.648 0 1.164-.048 1.548-.144s.66-.288.828-.576c.192-.312.312-.78.36-1.404.072-.624.108-1.488.108-2.592s-.036-1.968-.108-2.592c-.048-.648-.168-1.116-.36-1.404-.168-.312-.444-.504-.828-.576-.384-.096-.9-.144-1.548-.144-.696 0-1.236.096-1.62.288-.36.168-.636.468-.828.9-.144.384-.24.876-.288 1.476-.048.576-.072 1.26-.072 2.052 0 .816.024 1.512.072 2.088s.132 1.032.252 1.368c.192.48.48.816.864 1.008.384.168.924.252 1.62.252z" fill="#fff"/></svg>